<svg viewBox="0 0 512 512" xmlns="http://www.w3.org/2000/svg" xmlns:xlink="http://www.w3.org/1999/xlink">
<rect fill="#000" rx="15%" height="512" width="512"/>
<path id="half" d="M232 57l13 42v1l-3 3-34-11v50l34-18 3 4-19 58a31 31 0 0 0 25 41h1a30 30 0 0 0 9 0c-1-80-5-170-5-170zm-122 64c-10 0-20 6-24 16-6 14 1 29 14 35a27 27 0 1 0 10-51zm68 21c-11 0-20 6-25 17-5 13 1 29 15 34a27 27 0 1 0 10-51zM50 156c-10 0-20 6-24 17-6 13 1 29 14 34a27 27 0 1 0 10-51zm-18 67c-10 0-20 7-24 17-6 13 1 29 14 34a27 27 0 1 0 10-51zm97 7c-22 29-19 54 8 81-18-10-45 0-29 33 8-20 27-16 30 2 3 13-5 27-21 30-14 3-35-7-51-43 9 1 17 5 28 13l-17-59c-5 17-11 28-17 33-4-11-3-20 1-38l-37 12c20 27 38 64 54 128 54-8 114-12 178-12l3-149h-42s25 28 30 44c-16 0-30-3-46-20l5 62c15-21 32-29 42-28-1 23-4 49-43 53-27 2-49-11-51-28-2-18 15-31 27-11 11-33-17-44-35-24 14-32 13-55-17-79z" fill="#fff"/>
<use xlink:href="#half" transform="scale(-1, 1) translate(-512, 0)" />
</svg>
