<svg xmlns="http://www.w3.org/2000/svg" version="1.1" viewBox="0 0 512 512">
<rect height="100%" width="100%" rx="15%" ry="15%" fill="#3399eb"/>
<defs>
<clipPath id="i20">
<path id="i22" d="M0 0h138v139H0V0z" />
</clipPath>
<clipPath id="i24">
<path id="i26" d="M-306 254h750v-1334h-750V254z"/>
</clipPath>
<clipPath id="i28">
<path id="i30" d="M25.7 9L28 1.2l1-1 1-.2.6.2L38 3.4l-1.4 3.3L31 4.2l-2 6L25.8 9z"/>
</clipPath>
<clipPath id="i32">
<path id="i34" d="M0 0h138v139H0V0z" />
</clipPath>
<clipPath id="i36">
<path id="i38" d="M25 0h13v11H25V0z" />
</clipPath>
<clipPath id="i40">
<path id="i42" d="M38 10V0H25.7v10H38z"/>
</clipPath>
<clipPath id="i44">
<path id="i46" d="M25.7 0H38v10H25.7V0z" />
</clipPath>
<clipPath id="i54">
<path id="i56" d="M38 10V0H25.7v10H38z"/>
</clipPath>
<clipPath id="i58">
<path id="i60" d="M25 0h14v11H25V0z" />
</clipPath>
<linearGradient id="linearGradient3062" x1="6.2" x2="6.2" y1="-128.9" y2="10.1" gradientUnits="userSpaceOnUse" gradientTransform="matrix(1,0,0,-1,25.67,10.11)">
<stop id="i64" offset="0" stop-color="#9adaf4" />
<stop id="i66" offset="1" stop-color="#c1dff4" />
</linearGradient>
<clipPath id="i68">
<path id="i70" d="M-306 254h750v-1334h-750V254z"/>
</clipPath>
<clipPath id="i72">
<path id="i74" d="M59.3 138.4l.5-3.6c5 .7 10.4.8 15.6.3l.3 4-6.7.8c-3.3 0-6.5 0-9.7-.5zm22.3-4c5.2-1 10.2-2.6 15-4.7L98 133c-5 2.2-10.3 3.8-15.8 4.8l-.6-3.5zm-44.3-2.6l1.5-3.3c4.7 2.3 9.7 4 14.8 5.2l-.8 3.5c-5.4-1.2-10.6-3-15.5-5.4zm65-5c4.5-2.4 8.7-5.5 12.5-9l2.5 2.7c-4 3.7-8.6 7-13.4 9.6l-2-3zm-83.8-8.4l2.6-2.6c4 3.7 8 7 13 9.7l-2 3c-4.5-2.8-9-6.2-13-10zm100.7-5c3.5-4 6.5-8.3 9-13l3 1.7c-2.4 5-5.6 10-9.3 14l-3-2zM5.4 99.4L8.7 98c2 4.6 5 9 8.2 13.2l-3 2.3c-4-4.4-7-9-9-14zm125.2-4.8c2-5 3-10 3.6-15.2l3.5.4c-.5 5.4-1.8 10.8-3.8 16l-4-1.3zM0 77l3.6-.3C3.8 82 4.8 87 6.4 92L3 93.3C1.3 88 .3 82.3 0 77zm132-19.2l3.6-1c1.5 5.3 2.3 11 2.4 16.4h-3.6c0-5.2-.8-10.4-2.3-15.4zM0 70.3c.2-6 1-11.5 2-16.4h3.5c-1 5-1.7 10-2 16H0zm122.3-32l3-2c3.2 4.3 6 9.2 8 14.3L130 52c-2-5-4.4-9.5-7.6-13.7zM4 47.6c2-5.6 4.5-10 8-14.6l2.8 2.4c-3.4 4-6 8.3-7.7 13.4l-3-1.3zm102.3-24l2-3c4.6 3 9 6.6 12.6 10.6l-3 2.6c-4-3.8-8-7.2-12-10zm-89.5 4.8l3.7-3 3.2-10 3.4 1L24 27l-.7 1-3.8 3-2.4-2.5zm69.5-13.6l1-3.4c5.3 1.3 10.4 3.3 15.3 6l-1.7 3C96 18 91 16 86 14.8zm-32.5-.5l-11.3-5L44 6l10.6 4.7 3-.8 1 3-3.6 1h-1.2zM69 12.6h-4.5V9H69c4 0 8 .3 11.8 1l-.6 3.5c-3.7-.6-7.5-1-11.2-1z"/>
</clipPath>
<clipPath id="i76">
<path id="i78" d="M0 0h138v139H0V0z" />
</clipPath>
<clipPath id="i80">
<path id="i82" d="M0 5h138v134H0V5z" />
</clipPath>
<clipPath id="i84">
<path id="i86" d="M138 139V6H0v133h138z"/>
</clipPath>
<clipPath id="i88">
<path id="i90" d="M0 6h138v133H0V6z" />
</clipPath>
<linearGradient id="linearGradient3092" x1="512" x2="512" y2="1070" gradientUnits="userSpaceOnUse" gradientTransform="matrix(1,0,0,-1,0,139)">
<stop id="i94" offset="0" stop-color="#9adaf4" />
<stop id="i96" offset="1" stop-color="#c1dff4" />
</linearGradient>
<clipPath id="i98">
<path id="i00" d="M138 139V6H0v133h138z"/>
</clipPath>
<clipPath id="i02">
<path id="i04" d="M0 5h138v134H0V5z" />
</clipPath>
<linearGradient id="linearGradient3106" x1="69" x2="69" y2="139" gradientUnits="userSpaceOnUse" gradientTransform="matrix(1,0,0,-1,0,139)">
<stop id="i08" offset="0" stop-color="#9adaf4" />
<stop id="i10" offset="1" stop-color="#c1dff4" />
</linearGradient>
<clipPath id="i12">
<path id="i14" d="M-306 254h750v-1334h-750V254z"/>
</clipPath>
<clipPath id="i16">
<path id="i18" d="M37 16h-1c-.5.4-.8 1-1 1.6l-1 17.7c-6 4.5-10.4 10.2-13.5 17-3 6.8-4.6 14.4-4.6 22.5-1 27.7 24 50.2 54 50.2s54-22.5 54-50.2c0-27.8-24-50.3-54-50.3-5 0-10 .6-15 2L38 16c-.3-.2-.6-.3-1-.3"/>
</clipPath>
<clipPath id="clipPath3217">
<path id="path3219" d="M0 0h138v139H0V0z" />
</clipPath>
</defs>
<g transform="matrix(2.8985507,0,0,-2.8985507,56,456)" id="g3221">
<g id="g3223">
<g id="g3225">
<g clip-path="url(#i20)" id="g3227">
<g id="g3229">
<g clip-path="url(#i24)" id="g3231">
<g clip-path="url(#i28)" id="g3233">
<g clip-path="url(#i32)" id="g3235">
<g id="g3237">
<g clip-path="url(#i36)" id="g3239">
<g id="g3241">
<g clip-path="url(#i40)" id="g3243">
<g clip-path="url(#i44)" id="g3245">
<g id="g3247">
<path id="path3249" d="M 25.7,0 H 38 V 10 H 25.7 V 0 z" style="fill:url(#linearGradient3048)" />
</g>
</g>
</g>
</g>
<g id="g3251">
<g clip-path="url(#i54)" id="g3253">
<g clip-path="url(#i58)" id="g3255">
<g id="g3257">
<path id="path3259" d="M 25,0 H 39 V 11 H 25 V 0 z" style="fill:url(#linearGradient3062)" />
</g>
</g>
</g>
</g>
</g>
</g>
</g>
</g>
</g>
</g>
<g id="g3261">
<g clip-path="url(#i68)" id="g3263">
<g clip-path="url(#i72)" id="g3265">
<g clip-path="url(#i76)" id="g3267">
<g id="g3269">
<g clip-path="url(#i80)" id="g3271">
<g id="g3273">
<g clip-path="url(#i84)" id="g3275">
<g clip-path="url(#i88)" id="g3277">
<g id="g3279">
<path id="path3281" d="M 0,6 H 138 V 139 H 0 V 6 z" style="fill:url(#linearGradient3092)" />
</g>
</g>
</g>
</g>
<g id="g3283">
<g clip-path="url(#i98)" id="g3285">
<g clip-path="url(#i02)" id="g3287">
<g id="g3289">
<path id="path3291" d="M 0,5 H 138 V 139 H 0 V 5 z" style="fill:url(#linearGradient3106)" />
</g>
</g>
</g>
</g>
</g>
</g>
</g>
</g>
</g>
</g>
<g id="g3293">
<g clip-path="url(#i12)" id="g3295">
<g clip-path="url(#i16)" id="g3297">
<g clip-path="url(#i20)" id="g3299">
<path id="path3301" d="M 10.7,130 H 129.4 V 11 H 10.7 v 119 z" style="fill:#f2f2f2" />
</g>
</g>
</g>
</g>
</g>
</g>
</g>
</g>
</svg>

