<?xml version="1.0" standalone="no"?>
<!DOCTYPE svg PUBLIC "-//W3C//DTD SVG 20010904//EN"
 "http://www.w3.org/TR/2001/REC-SVG-20010904/DTD/svg10.dtd">
<svg version="1.0" xmlns="http://www.w3.org/2000/svg"
 width="16.000000pt" height="16.000000pt" viewBox="0 0 16.000000 16.000000"
 preserveAspectRatio="xMidYMid meet">
<metadata>
Created by potrace 1.11, written by Peter Selinger 2001-2013
</metadata>
<g transform="translate(0.000000,16.000000) scale(0.006154,-0.006154)"
fill="#000000" stroke="none">
<path d="M0 1300 l0 -1300 340 0 c187 0 340 2 340 5 0 11 -69 110 -99 144 -28
30 -44 80 -22 67 13 -8 44 31 38 48 -3 8 1 17 9 20 18 7 18 26 -1 40 -9 7 -12
19 -9 33 13 46 124 27 124 -22 0 -13 6 -16 24 -13 15 3 27 -1 34 -13 7 -10 30
-26 51 -36 22 -10 66 -43 98 -73 115 -109 178 -150 231 -150 36 1 106 22 165
49 78 36 93 21 72 -76 l-5 -23 292 0 293 1 -40 24 c-22 14 -44 25 -50 25 -23
2 -239 116 -249 133 -9 14 -4 24 26 55 80 79 92 106 113 237 10 59 22 103 31
109 8 6 18 25 23 43 8 26 6 37 -10 57 -23 29 -24 46 -3 94 8 20 18 59 20 87 3
27 9 54 14 59 12 12 13 76 1 76 -5 0 -12 -21 -16 -47 -4 -27 -14 -64 -23 -83
-15 -34 -16 -34 -19 -10 -2 14 -11 44 -19 68 l-16 43 -50 -2 c-42 -2 -53 1
-68 21 -15 20 -26 23 -95 24 -68 1 -79 4 -96 24 -20 26 -39 22 -39 -8 0 -22
10 -29 65 -50 41 -16 50 -35 16 -35 -10 -1 -25 -5 -32 -11 -20 -15 -79 -31
-118 -33 -19 -1 -40 -6 -46 -11 -6 -5 -20 -7 -30 -6 -31 5 -75 -42 -75 -80 0
-18 -4 -44 -10 -59 -11 -28 -41 -46 -48 -27 -5 15 -35 15 -50 0 -9 -9 -12 -9
-12 0 0 21 -19 13 -34 -15 l-15 -28 -1 31 c0 28 -3 31 -25 26 -18 -3 -25 0
-25 11 0 9 5 19 11 22 6 5 2 13 -11 22 -18 12 -21 22 -17 48 3 19 0 38 -6 44
-8 8 -8 14 -2 19 21 15 16 34 -7 27 -16 -4 -19 -3 -9 3 19 13 -2 50 -31 54
-13 2 -22 9 -20 16 1 6 -2 12 -7 12 -5 0 -8 11 -9 25 0 17 -13 39 -41 64 l-42
38 5 72 c2 39 0 73 -4 76 -4 2 -7 27 -6 54 1 37 8 57 24 74 12 13 22 28 22 33
0 5 12 21 28 36 58 55 63 67 64 152 0 21 -6 42 -13 46 -6 5 -9 15 -6 25 6 13
3 15 -15 9 -17 -5 -20 -3 -15 10 4 10 0 28 -9 41 -25 38 -10 122 26 156 16 15
27 29 24 32 -7 7 46 47 62 47 8 0 14 4 14 10 0 14 38 32 74 35 121 10 202 28
218 48 17 21 18 22 48 5 39 -22 59 -23 66 -3 4 11 10 12 18 6 15 -13 111 -16
153 -6 29 7 37 3 68 -28 21 -21 42 -34 50 -30 21 7 19 49 -2 57 -14 6 -15 9
-4 15 9 6 10 14 5 22 -5 8 -10 23 -11 34 -2 11 -8 24 -13 29 -6 6 -10 93 -10
208 l0 198 -820 0 -820 0 0 -1300z m405 86 c10 -7 16 -20 12 -28 -4 -13 -13
-14 -50 -5 -52 12 -77 5 -77 -20 0 -16 7 -18 40 -15 30 3 47 -1 62 -14 26 -24
38 -55 28 -74 -4 -8 -10 -28 -14 -44 -6 -23 -4 -27 8 -23 21 8 46 -25 49 -64
1 -18 12 -44 24 -57 12 -13 19 -30 16 -38 -3 -8 2 -25 11 -39 20 -31 16 -31
-59 -1 -79 32 -143 101 -180 193 -44 111 -37 177 23 218 41 28 79 32 107 11z
m1205 -466 c0 -5 -4 -10 -10 -10 -5 0 -10 5 -10 10 0 6 5 10 10 10 6 0 10 -4
10 -10z m17 -77 c4 -9 1 -19 -5 -21 -21 -7 -13 -20 8 -15 15 4 20 0 20 -16 0
-11 -4 -21 -10 -21 -5 0 -20 -9 -33 -20 -23 -20 -23 -22 -8 -55 9 -19 19 -34
22 -35 9 0 19 38 19 70 0 14 11 39 25 55 l24 30 1 -53 c0 -29 4 -62 10 -72 11
-20 -13 -167 -30 -184 -7 -7 -10 -4 -10 6 0 27 -14 29 -108 17 -89 -11 -89
-12 -87 -39 1 -14 5 -31 8 -37 4 -6 -2 -18 -13 -28 -13 -12 -18 -26 -15 -39 3
-12 2 -15 -1 -8 -3 6 -17 12 -30 12 -13 0 -24 5 -24 11 0 6 -7 9 -14 6 -10 -4
-30 12 -56 44 -23 27 -46 46 -51 43 -5 -3 -9 4 -9 15 0 12 -7 21 -15 21 -22 0
-20 83 5 149 10 29 22 56 24 59 13 13 104 3 131 -15 22 -15 101 -18 110 -4 7
12 -33 36 -60 36 -11 0 -21 8 -23 18 -3 14 4 17 48 17 30 0 49 4 45 10 -3 5 5
12 19 16 13 3 32 14 42 25 21 23 33 24 41 2z m-1077 -423 c0 -5 -5 -10 -11
-10 -5 0 -7 5 -4 10 3 6 8 10 11 10 2 0 4 -4 4 -10z m30 -5 c0 -8 -4 -15 -10
-15 -5 0 -10 7 -10 15 0 8 5 15 10 15 6 0 10 -7 10 -15z m917 -17 c-3 -8 -6
-5 -6 6 -1 11 2 17 5 13 3 -3 4 -12 1 -19z m78 3 c3 -5 1 -12 -5 -16 -5 -3
-10 1 -10 9 0 18 6 21 15 7z"/>
<path d="M305 1198 c4 -22 14 -55 21 -72 14 -30 14 -29 8 24 -6 53 -19 90 -30
90 -3 0 -3 -19 1 -42z"/>
<path d="M463 1023 c-17 -6 -16 -23 1 -23 8 0 16 7 20 15 6 15 1 17 -21 8z"/>
<path d="M1800 1560 c-8 -4 -35 -18 -60 -30 -25 -12 -53 -33 -63 -47 -21 -27
-17 -42 4 -20 8 7 48 24 89 37 41 13 77 24 78 26 2 1 1 12 -3 23 -7 22 -20 25
-45 11z"/>
<path d="M1332 1462 c-37 -11 -30 -27 14 -30 40 -3 102 13 91 24 -9 9 -80 13
-105 6z"/>
<path d="M1723 1443 c-14 -3 -24 -12 -24 -24 -1 -10 -2 -24 -3 -30 -2 -22 42
-30 60 -11 10 9 28 15 41 14 19 -3 23 1 23 21 0 33 -32 43 -97 30z m2 -33 c3
-5 1 -10 -4 -10 -6 0 -11 5 -11 10 0 6 2 10 4 10 3 0 8 -4 11 -10z"/>
<path d="M1227 1346 c-68 -23 -96 -40 -84 -52 3 -4 24 3 47 15 48 25 50 25 50
7 0 -16 21 -26 55 -26 18 0 25 7 30 28 4 21 12 28 27 28 11 -1 23 5 25 12 7
20 -75 14 -150 -12z m63 -6 c0 -5 -5 -10 -11 -10 -5 0 -7 5 -4 10 3 6 8 10 11
10 2 0 4 -4 4 -10z"/>
<path d="M987 826 c-4 -10 -5 -21 -2 -24 9 -9 17 6 13 25 -3 17 -4 17 -11 -1z"/>
</g>
</svg>
