<?xml version="1.0" ?><svg height="512" id="Layer_1" version="1.1" viewBox="0 0 512 512" width="512" xml:space="preserve" xmlns="http://www.w3.org/2000/svg" xmlns:cc="http://creativecommons.org/ns#" xmlns:dc="http://purl.org/dc/elements/1.1/" xmlns:inkscape="http://www.inkscape.org/namespaces/inkscape" xmlns:rdf="http://www.w3.org/1999/02/22-rdf-syntax-ns#" xmlns:sodipodi="http://sodipodi.sourceforge.net/DTD/sodipodi-0.dtd" xmlns:svg="http://www.w3.org/2000/svg"><defs id="defs12"/><g id="g4641"><rect height="512" id="rect2987" rx="64" ry="64" style="fill:#fe9900;fill-opacity:1;fill-rule:nonzero;stroke:none" width="512" x="0" y="5.6843419e-014"/><path d="m 292.57775,183.82384 c -9.682,0.765 -20.8526,1.50176 -32.0209,3.00609 -17.12,2.21157 -34.2401,5.21893 -48.3861,11.90753 -27.5437,11.208 -46.1631,35.05257 -46.1631,70.11413 0,44.01691 28.2985,66.3546 64.0264,66.3546 11.9305,0 21.606,-1.46582 30.5228,-3.70947 14.1563,-4.48217 26.0703,-12.66996 40.2086,-27.59641 8.1929,11.20542 10.4135,16.42821 24.575,28.3383 3.7249,1.50176 7.4484,1.50176 10.4134,-0.74189 8.9322,-7.45874 24.5609,-20.87316 32.773,-28.33061 3.7107,-3.01121 2.956,-7.46258 0.7394,-11.20413 -8.1981,-10.43401 -16.3808,-19.40092 -16.3808,-39.50651 v -67.13116 c 0,-28.35883 2.2141,-54.45348 -18.6141,-73.82231 -17.1226,-15.686316 -43.9297,-21.641996 -64.7694,-21.641996 -2.9907,0 -5.9493,0 -8.9476,0 -37.965,2.24621 -78.1685,18.634626 -87.1212,65.629386 -1.4621,5.95441 3.0124,8.19807 5.989,8.96178 l 41.677,5.22406 c 4.4707,-0.7727 6.6912,-4.49115 7.4318,-8.23271 3.7402,-16.38842 17.1354,-24.58262 32.0234,-26.08696 0.7546,0 1.5043,0 2.9983,0 8.9053,0 18.5858,3.74286 23.8138,11.16822 5.9313,8.96561 5.2099,20.90395 5.2099,31.33924 v 5.96082 z m 0,43.27759 c 0,17.16239 0.7225,30.57168 -8.1956,45.46091 -5.2074,10.43657 -14.1396,17.1547 -23.8266,19.40091 -1.4812,0 -3.6979,0.765 -5.9467,0.765 -16.3704,0 -26.0767,-12.67253 -26.0767,-31.33411 0,-23.85614 14.1589,-35.05514 32.0234,-40.27664 9.687,-2.24108 20.8604,-2.9817 32.0208,-2.9817 v 8.96563 z m 137.1323,177.20102 c 18.2008,-15.39878 25.8892,-43.34817 26.2897,-57.93961 v -2.44004 c 0,-3.25509 -0.8022,-5.66175 -1.5993,-6.87984 -3.6453,-4.44495 -30.3689,-8.52281 -53.4022,-1.62755 -6.4678,2.04598 -12.1463,4.86595 -17.3961,8.50739 -4.0508,2.85335 -3.2383,6.46399 0.8023,6.08019 4.4475,-0.82275 10.126,-1.20782 16.5938,-2.04855 14.1588,-1.17958 30.7423,-1.5916 34.7842,3.66326 5.6412,6.86959 -6.4677,36.86753 -11.7496,49.83784 -1.5929,4.0663 2.0294,5.69641 5.6772,2.84691 z M 58.008246,346.36413 C 110.17835,393.76833 178.93315,422.14 255.79875,422.14 c 47.7251,0 102.7267,-13.38104 145.1995,-38.89937 5.6758,-3.2705 11.3158,-6.91194 16.5655,-10.95256 7.2854,-5.24975 0.8176,-13.37978 -6.4627,-10.14779 -3.2294,1.21553 -6.8734,2.85847 -10.1028,4.06631 -46.5392,18.24828 -95.4412,26.76081 -140.7623,26.76081 -72.0073,0 -141.5593,-19.87071 -197.785404,-52.68475 -5.2599,-2.82126 -8.9079,2.42848 -4.4423,6.08148 z" id="Amazon_2_" style="fill:#ffffff"/></g></svg>