<?xml version="1.0" encoding="UTF-8"?>
<svg xmlns="http://www.w3.org/2000/svg"
	xmlns:cc="http://creativecommons.org/ns#"
	version="1.1"
	viewBox="0 0 512 512">
	<g>
		<rect
			height="100%"
			width="100%"
			rx="15%"
			ry="15%"
			style="fill:#168de2;
					fill-opacity:1;
					fill-rule:nonzero;
					stroke:none" />
		<g>
			<path d="m 325,254 c -2,-44 -35,-70 -74,-70 h -1.49271 c -45,0 -71,36 -71,77 0,46 31,75 71,75 45,0 74,-33 77,-72 l -0.10083,-8.9425 z M 249.06141,143.77992 c 30.56941,0 59.31572,13.51355 80.41569,34.67344 v 0.0789 c 0,-10.1542 6.83707,-17.81281 16.32463,-17.81281 l 2.40265,-0.0161 c 14.83791,0 17.89376,14.04663 17.89376,18.49011 l 0.0672,157.91815 c -1.04965,10.34343 10.67237,15.68341 17.16706,9.04303 25.36152,-26.06002 55.69376,-133.97115 -15.76452,-196.48095 -66.59585,-58.291684 -155.95549,-48.69003 -203.47876,-15.93125 -50.52505,34.84324 -82.846827,111.9703 -51.44697,184.40458 34.23344,79.00115 132.18414,102.5653 190.40359,79.05815 29.47929,-11.89766 43.09031,27.94902 12.47443,40.97143 C 269.2643,457.87699 140.49957,455.88877 80.353263,351.69281 39.713683,281.34277 41.867183,157.55899 149.65819,93.430316 232.10858,44.355874 340.82166,57.938441 406.3724,126.39644 c 68.51948,71.56628 64.51614,205.58696 -2.30796,257.68275 -30.28271,23.6752 -75.26202,0.64267 -74.97824,-33.85059 l -0.30789,-11.27602 c -21.08477,20.92125 -49.14793,33.12827 -79.71734,33.12827 -60.39852,0 -113.54541,-53.13038 -113.54541,-113.53943 0,-60.99006 53.14689,-114.76179 113.54541,-114.76179 l 0,0"
				style="fill:#ffffff"/>
		</g>
	</g>
</svg>
