<?xml version="1.0" ?><svg height="512" id="Layer_1" version="1.1" viewBox="0 0 512 512" width="512" xml:space="preserve" xmlns="http://www.w3.org/2000/svg" xmlns:cc="http://creativecommons.org/ns#" xmlns:dc="http://purl.org/dc/elements/1.1/" xmlns:inkscape="http://www.inkscape.org/namespaces/inkscape" xmlns:rdf="http://www.w3.org/1999/02/22-rdf-syntax-ns#" xmlns:sodipodi="http://sodipodi.sourceforge.net/DTD/sodipodi-0.dtd" xmlns:svg="http://www.w3.org/2000/svg"><defs id="defs12"/><g id="g5274"><rect height="512" id="rect2987" rx="64" ry="64" style="fill:#168de2;fill-opacity:1;fill-rule:nonzero;stroke:none" width="512" x="0" y="5.6843419e-014"/><path d="m 325.08023,254.16735 c -2.27055,-44.21506 -35.10145,-70.80947 -74.74837,-70.80947 h -1.49271 c -45.75131,0 -71.12043,35.9769 -71.12043,76.84766 0,45.75277 30.69113,74.65689 70.94771,74.65689 44.86825,0 74.37896,-32.87444 76.51434,-71.75258 l -0.10083,-8.9425 z M 249.06141,143.77992 c 30.56941,0 59.31572,13.51355 80.41569,34.67344 v 0.0789 c 0,-10.1542 6.83707,-17.81281 16.32463,-17.81281 l 2.40265,-0.0161 c 14.83791,0 17.89376,14.04663 17.89376,18.49011 l 0.0672,157.91815 c -1.04965,10.34343 10.67237,15.68341 17.16706,9.04303 25.36152,-26.06002 55.69376,-133.97115 -15.76452,-196.48095 -66.59585,-58.291684 -155.95549,-48.69003 -203.47876,-15.93125 -50.52505,34.84324 -82.846827,111.9703 -51.44697,184.40458 34.23344,79.00115 132.18414,102.5653 190.40359,79.05815 29.47929,-11.89766 43.09031,27.94902 12.47443,40.97143 C 269.2643,457.87699 140.49957,455.88877 80.353263,351.69281 39.713683,281.34277 41.867183,157.55899 149.65819,93.430316 232.10858,44.355874 340.82166,57.938441 406.3724,126.39644 c 68.51948,71.56628 64.51614,205.58696 -2.30796,257.68275 -30.28271,23.6752 -75.26202,0.64267 -74.97824,-33.85059 l -0.30789,-11.27602 c -21.08477,20.92125 -49.14793,33.12827 -79.71734,33.12827 -60.39852,0 -113.54541,-53.13038 -113.54541,-113.53943 0,-60.99006 53.14689,-114.76179 113.54541,-114.76179 l 0,0" id="path24_3_" style="fill:#ffffff"/></g></svg>