<?xml version="1.0" encoding="UTF-8"?>
<svg xmlns="http://www.w3.org/2000/svg"
	xmlns:cc="http://creativecommons.org/ns#"
	version="1.1"
	viewBox="0 0 512 512">
	<g>
		<rect
			height="100%"
			width="100%"
			rx="15%"
			ry="15%"
			style="fill:#FFFFFF;
					fill-opacity:1;
					fill-rule:nonzero;
					stroke:none" />
		<g
			transform="matrix(8,0,0,8,0,0)">
			<g
				id="Icon-Lock"
				transform="translate(284,430)">
				<path
					d="m -237.7,-401.3 h -3 v -6.4 c 0,-6.2 -5.1,-11.3 -11.3,-11.3 -6.2,0 -11.3,5.1 -11.3,11.3 v 6.4 h -3 v -6.4 c 0,-7.9 6.4,-14.3 14.3,-14.3 7.9,0 14.3,6.4 14.3,14.3 v 6.4"
					style="fill:#134563" />
				<path
					d="m -239.2,-374.1 h -25.6 c -2.6,0 -4.8,-2.2 -4.8,-4.8 v -19.2 c 0,-2.6 2.2,-4.8 4.8,-4.8 h 25.6 c 2.6,0 4.8,2.2 4.8,4.8 v 19.2 c 0,2.7 -2.2,4.8 -4.8,4.8 l 0,0 z m -25.6,-25.6 c -0.9,0 -1.6,0.7 -1.6,1.6 v 19.2 c 0,0.9 0.7,1.6 1.6,1.6 h 25.6 c 0.9,0 1.6,-0.7 1.6,-1.6 v -19.2 c 0,-0.9 -0.7,-1.6 -1.6,-1.6 h -25.6 l 0,0 z"
					style="fill:#134563" />
				<path
					d="m -248.8,-393.3 c 0,1.8 -1.4,3.2 -3.2,3.2 -1.8,0 -3.2,-1.4 -3.2,-3.2 0,-1.8 1.4,-3.2 3.2,-3.2 1.8,0 3.2,1.5 3.2,3.2"
					style="fill:#134563" />
				<polyline
					points="-251.2,-393.3 -252.8,-393.3 -254.4,-383.7 -249.6,-383.7 -251.2,-393.3"
					style="fill:#134563" />
			</g>
		</g>
	</g>
</svg>
