<?xml version="1.0" encoding="UTF-8"?>
<svg xmlns="http://www.w3.org/2000/svg"
	xmlns:cc="http://creativecommons.org/ns#"
	version="1.1"
	viewBox="0 0 512 512">
	<g>
		<rect
			height="100%"
			width="100%"
			rx="15%"
			ry="15%"
			style="fill:#006492;
					fill-opacity:1;
					fill-rule:nonzero;
					stroke:none" />
		<g
			transform="matrix(1.5,0,0,1.5,-125,-110)">
			<path d="M365.15,141.781H146.883c-17.211,0-31.182,13.968-31.182,31.181v140.312  c0,17.205,13.971,31.182,31.182,31.182H365.15c17.207,0,31.182-13.977,31.182-31.182V172.962  C396.332,155.749,382.357,141.781,365.15,141.781z M211.211,256.749l26.746,23.362c5.088,4.448,11.53,6.636,18.061,6.636  c6.527,0,12.977-2.218,18.066-6.636l26.734-23.362l-0.621,0.617l60.875,60.857H150.958l60.868-60.857L211.211,256.749z   M139.158,306.436V193.702l60.132,52.609L139.158,306.436z M312.75,246.311l60.129-52.609v112.685L312.75,246.311z M372.879,167.993  v3.504l-109.787,96.059c-3.789,3.311-10.357,3.311-14.146,0l-109.787-96.059v-3.504H372.879z"
				style="fill:#FFFFFF" />
		</g>
	</g>
</svg>
