<?xml version="1.0" encoding="UTF-8"?>
<svg xmlns="http://www.w3.org/2000/svg"
	xmlns:cc="http://creativecommons.org/ns#"
	version="1.1"
	viewBox="0 0 512 512">
	<g>
		<rect
			height="100%"
			width="100%"
			rx="15%"
			ry="15%"
			style="fill:#006492;fill-opacity:1;fill-rule:nonzero;stroke:none"/>
		<g
			transform="matrix(1.5,0,0,1.5,-1275,-620)">
			<path
				d="m 1137.6643,497.07514 c 10.8261,19.37702 7.252,42.20175 2.9945,55.70278 -23.0796,73.52807 -127.1776,69.52647 -142.23964,69.52647 -15.04761,0 -18.54361,13.68395 -18.54361,13.68395 l -11.2536,47.86708 c -3.05925,16.7915 -18.68234,15.96837 -18.68234,15.96837 0,0 -20.29778,0 -33.88204,0 -0.85294,0 -1.64833,-0.0647 -2.38205,-0.16031 -0.16854,3.07879 0.27129,12.05412 11.56496,12.05412 13.57193,0 33.86972,0 33.86972,0 0,0 15.62308,0.84882 18.69364,-15.94268 l 11.24538,-47.86914 c 0,0 3.5145,-13.69011 18.55188,-13.69011 15.0291,0 119.1672,4.00777 142.2396,-69.51825 5.1546,-16.42978 9.336,-46.62263 -12.1764,-67.62228 z"
				style="fill:#FFFFFF"/>
			<path
				d="m 958.16375,673.42085 11.25359,-47.87531 c 0,0 3.48881,-13.67058 18.55184,-13.67058 15.02912,0 119.15182,3.98002 142.21082,-69.52751 8.4595,-26.87256 14.315,-90.61553 -90.8128,-90.61553 h -75.92245 c 0,0 -15.78956,-0.71421 -19.68326,15.65391 l -49.62947,208.89595 c 0,0 -2.12309,13.09408 11.45295,13.09408 13.58426,0 33.89335,0 33.89335,0 0,0 15.62617,0.84369 18.68543,-15.95501 z m 28.62262,-121.50512 10.08518,-42.46996 c 0,0 3.21135,-11.53928 13.58015,-13.24515 10.3709,-1.72333 28.0194,0.29288 32.5821,1.13965 29.4817,5.40329 23.206,32.62217 23.206,32.62217 -5.8462,42.025 -72.88172,36.1788 -72.88172,36.1788 -10.50959,-3.69537 -6.57171,-14.22551 -6.57171,-14.22551 z"
				style="fill:#FFFFFF"/>
		</g>
	</g>
</svg>
