<?xml version="1.0" ?><svg height="512" id="Layer_1" version="1.1" viewBox="0 0 512 512" width="512" xml:space="preserve" xmlns="http://www.w3.org/2000/svg" xmlns:cc="http://creativecommons.org/ns#" xmlns:dc="http://purl.org/dc/elements/1.1/" xmlns:inkscape="http://www.inkscape.org/namespaces/inkscape" xmlns:rdf="http://www.w3.org/1999/02/22-rdf-syntax-ns#" xmlns:sodipodi="http://sodipodi.sourceforge.net/DTD/sodipodi-0.dtd" xmlns:svg="http://www.w3.org/2000/svg"><defs id="defs12"/><g id="g5871"><rect height="512" id="rect2987" rx="64" ry="64" style="fill:#01b7ee;fill-opacity:1;fill-rule:nonzero;stroke:none" width="512" x="0" y="5.6843419e-014"/><g id="g11" transform="matrix(1.2608711,0,0,1.2608711,-66.18787,-50.630612)"><path d="m 402.951,276.887 c 2.223,-10.316 3.462,-21.042 3.462,-32.024 0,-82.411 -66.819,-149.196 -149.223,-149.196 -8.702,0 -17.235,0.752 -25.513,2.162 -13.355,-8.369 -29.129,-13.26 -46.051,-13.26 -47.771,0 -86.525,38.737 -86.525,86.504 0,15.989 4.359,30.915 11.911,43.772 -1.975,9.684 -3.018,19.73 -3.018,30.006 0,82.39 66.788,149.191 149.197,149.191 9.327,0 18.46,-0.88 27.333,-2.491 12.169,6.535 26.107,10.259 40.9,10.259 47.771,0 86.531,-38.736 86.531,-86.518 0,-13.784 -3.275,-26.831 -9.004,-38.405 z m -69.248,39.297 c -6.893,9.758 -17.086,17.51 -30.314,23.002 -13.078,5.434 -28.781,8.186 -46.606,8.186 -21.431,0 -39.394,-3.779 -53.424,-11.203 -10.014,-5.426 -18.285,-12.743 -24.563,-21.803 -6.349,-9.133 -9.553,-18.201 -9.553,-26.973 0,-5.459 2.123,-10.172 6.233,-14.074 4.085,-3.84 9.339,-5.8 15.572,-5.8 5.139,0 9.557,1.546 13.16,4.575 3.441,2.931 6.354,7.219 8.749,12.783 2.657,6.051 5.515,11.189 8.56,15.2 2.931,3.881 7.14,7.111 12.537,9.668 5.384,2.573 12.688,3.868 21.665,3.868 12.353,0 22.439,-2.655 30.048,-7.838 7.433,-5.064 11.024,-11.156 11.024,-18.612 0,-5.89 -1.847,-10.522 -5.76,-14.148 -4.027,-3.794 -9.41,-6.749 -15.932,-8.788 -6.754,-2.133 -15.99,-4.398 -27.361,-6.799 -15.488,-3.288 -28.648,-7.227 -39.113,-11.686 -10.679,-4.559 -19.307,-10.855 -25.614,-18.763 -6.41,-8.024 -9.64,-18.066 -9.64,-29.888 0,-11.283 3.405,-21.418 10.131,-30.208 6.667,-8.697 16.422,-15.472 28.946,-20.084 12.413,-4.595 27.135,-6.93 43.79,-6.93 13.336,0 25.02,1.545 34.81,4.604 9.841,3.075 18.142,7.201 24.646,12.298 6.556,5.122 11.46,10.605 14.507,16.294 3.107,5.788 4.646,11.484 4.646,17.025 0,5.328 -2.05,10.177 -6.119,14.391 -4.065,4.246 -9.239,6.437 -15.312,6.437 -5.511,0 -9.844,-1.356 -12.828,-4.012 -2.815,-2.47 -5.734,-6.334 -8.935,-11.85 -3.696,-7.058 -8.197,-12.61 -13.368,-16.565 -5.02,-3.822 -13.391,-5.759 -24.9,-5.759 -10.7,0 -19.39,2.15 -25.863,6.392 -6.225,4.07 -9.237,8.764 -9.237,14.301 0,3.391 0.951,6.264 2.973,8.689 2.105,2.586 5.107,4.847 8.888,6.754 3.94,1.981 7.962,3.534 12.004,4.648 4.142,1.139 11.112,2.841 20.627,5.064 12.08,2.582 23.174,5.487 32.99,8.62 9.931,3.189 18.526,7.099 25.514,11.657 7.146,4.662 12.818,10.655 16.844,17.749 3.996,7.178 6.042,16.023 6.042,26.299 -0.028,12.265 -3.534,23.462 -10.464,33.279 z" id="path13-4" style="fill:#ffffff"/></g></g></svg>