<?xml version="1.0" encoding="UTF-8"?>
<svg xmlns="http://www.w3.org/2000/svg"
	xmlns:cc="http://creativecommons.org/ns#"
	version="1.1"
	viewBox="0 0 512 512">
	<g>
		<rect
			height="100%"
			width="100%"
			rx="15%"
			ry="15%"
			style="fill:#f37a20;" />
			<g transform="matrix(1.5807476,0,0,1.5807476,-1690,-520)">
			<rect height="21.336" style="fill:#ffffff;fill-opacity:1" width="99.906998" x="1162.9312" y="562.14398"/>
			<rect height="21.338608" style="fill:#ffffff;fill-opacity:1" transform="matrix(0.17099512,0.98527188,-0.98527188,0.17099512,0,0)" width="99.903854" x="583.38794" y="-1231.6235"/>
			<polygon id="polygon10" points="191.668,291.191 291.147,300.357 289.189,321.6 189.709,312.44 " style="fill:#ffffff;fill-opacity:1" transform="translate(974.0981,234.40296)"/>
			<rect height="21.337666" style="fill:#ffffff;fill-opacity:1" transform="matrix(0.96571514,0.25960407,-0.25960407,0.96571514,0,0)" width="99.903435" x="1259.8923" y="159.36772"/>
			<polygon id="polygon14" points="224.254,197.353 310.304,248.107 299.464,266.484 213.408,215.727 " style="fill:#ffffff;fill-opacity:1" transform="translate(974.0981,234.40296)"/>
			<polygon id="polygon16" points="275.116,150.619 331.403,233.161 313.776,245.178 257.485,162.641 " style="fill:#ffffff;fill-opacity:1" transform="translate(974.0981,234.40296)"/>
			<polygon id="polygon18" points="157.776,382.5 162.758,382.5 322.5,382.5 322.5,382.836 322.5,377.852 322.5,278.5 305.5,278.5 305.5,366.5 174.5,366.5 174.5,278.5 157.5,278.5 157.5,382.5"
				style="fill:#ffffff;" transform="translate(974.0981,234.40296)"/>
			</g>
	</g>
</svg>
