<?xml version="1.0" ?><svg enable-background="new 0 0 515.91 728.5" height="512" id="Layer_1" version="1.1" viewBox="0 0 512.00003 512" width="512" xml:space="preserve" xmlns="http://www.w3.org/2000/svg" xmlns:cc="http://creativecommons.org/ns#" xmlns:dc="http://purl.org/dc/elements/1.1/" xmlns:inkscape="http://www.inkscape.org/namespaces/inkscape" xmlns:rdf="http://www.w3.org/1999/02/22-rdf-syntax-ns#" xmlns:sodipodi="http://sodipodi.sourceforge.net/DTD/sodipodi-0.dtd" xmlns:svg="http://www.w3.org/2000/svg"><defs id="defs7"/><g id="g3102"><rect height="512" id="rect2984" rx="64" ry="64" style="fill:#f37a20;fill-opacity:1;fill-rule:nonzero;stroke:none" width="512" x="0" y="0"/><g id="g4534" style="fill:#ffffff;fill-opacity:1" transform="matrix(1.5807476,0,0,1.5807476,-1689.8384,-519.69899)"><rect height="21.336" id="rect6" style="fill:#ffffff;fill-opacity:1" width="99.906998" x="1162.9312" y="562.14398"/><rect height="21.338608" id="rect8" style="fill:#ffffff;fill-opacity:1" transform="matrix(0.17099512,0.98527188,-0.98527188,0.17099512,0,0)" width="99.903854" x="583.38794" y="-1231.6235"/><polygon id="polygon10" points="191.668,291.191 291.147,300.357 289.189,321.6 189.709,312.44 " style="fill:#ffffff;fill-opacity:1" transform="translate(974.0981,234.40296)"/><rect height="21.337666" id="rect12" style="fill:#ffffff;fill-opacity:1" transform="matrix(0.96571514,0.25960407,-0.25960407,0.96571514,0,0)" width="99.903435" x="1259.8923" y="159.36772"/><polygon id="polygon14" points="224.254,197.353 310.304,248.107 299.464,266.484 213.408,215.727 " style="fill:#ffffff;fill-opacity:1" transform="translate(974.0981,234.40296)"/><polygon id="polygon16" points="275.116,150.619 331.403,233.161 313.776,245.178 257.485,162.641 " style="fill:#ffffff;fill-opacity:1" transform="translate(974.0981,234.40296)"/><polygon id="polygon18" points="157.776,382.5 162.758,382.5 322.5,382.5 322.5,382.836 322.5,377.852 322.5,278.5 305.5,278.5 305.5,366.5 174.5,366.5 174.5,278.5 157.5,278.5 157.5,382.5 " style="fill:#ffffff;fill-opacity:1" transform="translate(974.0981,234.40296)"/></g></g></svg>