<?xml version="1.0" encoding="UTF-8"?>
<svg xmlns="http://www.w3.org/2000/svg"
	xmlns:cc="http://creativecommons.org/ns#"
	version="1.1"
	viewBox="0 0 512 512">
	<g>
		<rect
			height="100%"
			width="100%"
			rx="15%"
			ry="15%"
			style="fill:#44556b;" />
		<g transform="matrix(1.37,0,0,1.37,-95,-78)">
			<path d="m 325.21,330.246 c -5.413,2.582 -15.769,4.828 -23.491,5.023 -23.318,0.619 -27.84,-16.381 -28.03,-28.703 v -90.664 h 58.483 V 171.808 H 273.891 V 97.623 c 0,0 -41.966,0 -42.649,0 -0.705,0 -1.932,0.609 -2.104,2.17 -2.494,22.705 -13.117,62.563 -57.3,78.494 v 37.615 h 29.477 v 95.15 c 0,32.586 24.033,78.871 87.474,77.779 21.408,-0.367 45.182,-9.33 50.43,-17.066 L 325.21,330.246"
				style="fill:#ffffff"/>
		</g>
	</g>
</svg>
