<?xml version="1.0" ?><svg enable-background="new 0 0 515.91 728.5" height="512" id="Layer_1" version="1.1" viewBox="0 0 512.00003 512" width="512" xml:space="preserve" xmlns="http://www.w3.org/2000/svg" xmlns:cc="http://creativecommons.org/ns#" xmlns:dc="http://purl.org/dc/elements/1.1/" xmlns:inkscape="http://www.inkscape.org/namespaces/inkscape" xmlns:rdf="http://www.w3.org/1999/02/22-rdf-syntax-ns#" xmlns:sodipodi="http://sodipodi.sourceforge.net/DTD/sodipodi-0.dtd" xmlns:svg="http://www.w3.org/2000/svg"><defs id="defs7"/><rect height="512" id="rect2984" rx="64" ry="64" style="fill:#282828;fill-opacity:1;fill-rule:nonzero;stroke:none" width="512" x="1.5e-005" y="0"/><path d="m 204.16892,107.11127 53.0578,180.90203 53.071,-180.90203 h 38.4133 91.13769 v 18.55109 l -47.0089,93.56435 c 19.0089,6.13332 36.9867,17.28887 46.7467,33.4044 9.7555,16.14665 16.4133,35.11997 16.4133,56.88439 0,26.91552 -6.2489,49.5155 -20.5289,67.87103 -14.2622,18.32886 -32.2844,27.50219 -54.9822,27.50219 -17.0844,0 -31.71099,-5.44889 -44.40879,-16.31554 -12.6889,-10.89332 -21.9466,-25.61774 -28.04,-44.23106 l 30.0356,-12.45776 c 4.4,11.25776 10.2177,20.1022 17.4311,26.59997 7.17769,6.47999 15.66659,9.69332 25.42659,9.69332 10.2533,0 18.9333,-5.73777 26,-17.2222 7.0666,-11.51554 10.6177,-25.32442 10.6177,-41.47551 0,-17.84442 -3.8089,-37.10218 -11.3555,-46.86217 -8.7778,-11.51999 -22.5689,-22.67109 -41.3555,-22.67109 h -25.26219 v -6.78221 l 61.84879,-92.84878 h -61.83099 l -3.5156,0.28889 -75.1999,248.78194 h -3.6533 l -54.9066,-184.20868 -54.8622,184.21313 h -3.6711 l -87.7866,-282.2797 h 38.4044 l 53.0577,181.19092 35.8489,-121.99098 -17.5644,-59.19994 h 38.4221 z" id="W3" style="fill:#ffffff;fill-opacity:1"/></svg>