<?xml version="1.0" ?><svg enable-background="new 0 0 515.91 728.5" height="512" id="Layer_1" version="1.1" viewBox="0 0 512.00003 512" width="512" xml:space="preserve" xmlns="http://www.w3.org/2000/svg" xmlns:cc="http://creativecommons.org/ns#" xmlns:dc="http://purl.org/dc/elements/1.1/" xmlns:inkscape="http://www.inkscape.org/namespaces/inkscape" xmlns:rdf="http://www.w3.org/1999/02/22-rdf-syntax-ns#" xmlns:sodipodi="http://sodipodi.sourceforge.net/DTD/sodipodi-0.dtd" xmlns:svg="http://www.w3.org/2000/svg"><defs id="defs7"/><g id="g3075"><rect height="512" id="rect2984" rx="64" ry="64" style="fill:#2984b8;fill-opacity:1;fill-rule:nonzero;stroke:none" width="512" x="0" y="0"/><path d="M 56.003263,256.10805 C 55.370063,145.96554 146.73377,55.22824 257.47508,55.92914 366.32089,56.63174 456.0702,146.55864 456,256.24895 455.964,366.28886 365.65239,456.13746 255.19057,456.07486 145.71447,456.00486 56.003263,365.93406 56.003263,256.10805 z m 120.295507,160.74081 0.351,-0.035 v -0.3496 c -0.6317,-2.0052 -1.1597,-4.0417 -1.8617,-6.0087 -27.0318,-74.05031 -54.0346,-148.10421 -81.104507,-222.15461 -0.4593,-1.2643 -0.5645,-3.3704 -1.9669,-3.4713 -1.8253,-0.1043 -1.8618,2.1374 -2.4249,3.4713 -10.4273,25.3131 -14.8176,51.793 -12.852,79.0348 3.7233,51.8938 25.841407,94.66421 65.835107,127.98771 10.3554,8.64 21.4497,16.2608 34.0239,21.5252 z m 169.65902,-54.1774 c 0.4548,-1.0504 0.9125,-1.753 1.1231,-2.5269 8.9913,-29.98441 18.1199,-59.90091 26.7571,-89.98601 6.1407,-21.3565 4.0318,-42.2435 -5.6553,-62.2922 -3.5176,-7.2313 -7.7981,-13.9756 -11.9397,-20.826 -4.7412,-7.8278 -9.0553,-15.8348 -10.7796,-24.99831 -3.7219,-19.3443 8.3534,-36.1304 27.7718,-38.6938 0.8102,-0.1044 1.7214,0.035 2.2814,-0.8835 0,-1.3305 -1.1216,-1.8574 -1.9654,-2.5218 -40.3066,-34.090398 -86.86671,-48.314699 -139.18302,-42.485098 -38.5852,4.3182 -72.1224,20.363401 -100.7382,46.559898 -9.5497,8.7774 -17.9412,18.6052 -25.3469,29.2487 -0.6319,0.8748 -1.6879,1.8209 -1.2331,2.9478 0.5646,1.4661 2.1776,0.9131 3.3739,0.9444 3.3696,0.1043 6.7054,0.052 10.1099,0.1043 14.4666,0.2139 28.8661,-1.3635 43.2976,-1.8922 5.5821,-0.1739 8.6676,2.1444 9.0568,6.6 0.3877,4.1826 -2.5636,7.2678 -7.9001,8.0087 -4.3186,0.5948 -8.6388,0.94611 -12.9894,1.33221 -6.1484,0.56 -6.2155,0.56 -4.2164,6.4956 20.4348,60.8122 40.8711,121.5965 61.3059,182.40861 0.493,1.3704 0.5327,3.0574 2.1807,3.8939 1.2285,-0.8105 1.4344,-2.1061 1.8221,-3.2626 12.1485,-36.34261 24.262,-72.71471 36.374,-109.06081 0.6379,-1.8922 1.0178,-3.7165 0.2868,-5.7183 -8.712,-23.7373 -17.3873,-47.473 -25.9817,-71.2086 -0.9172,-2.5235 -2.4967,-3.2991 -5.0572,-3.4765 -5.1611,-0.3496 -10.3633,-0.91651 -15.4861,-1.65221 -4.1109,-0.6313 -6.5297,-3.8991 -6.1421,-7.6887 0.4166,-4.0765 3.0505,-6.4591 7.2988,-6.673 0.9828,-0.07 1.9656,0 2.9484,0.07 19.6335,1.153 39.2566,2.3895 58.91761,1.6869 11.2026,-0.4261 22.4004,-1.2643 33.60281,-1.7269 4.7414,-0.207 7.5172,2.2487 7.9337,6.3234 0.4244,4.1774 -2.1043,7.3757 -6.7708,8.0748 -4.5994,0.6661 -9.20031,1.05571 -13.79981,1.47831 -6.4932,0.6313 -6.5297,0.593 -4.497,6.6365 20.22731,60.1095 40.45601,120.2503 60.71071,180.36851 0.4593,1.4122 0.5967,3.0957 2.5287,4.3913 z m -86.40891,-89.46771 c -2.0769,1.793 -2.2494,3.553 -2.8155,5.0939 -4.45601,12.8504 -8.84631,25.7687 -13.26871,38.6208 -12.1837,35.43131 -24.3657,70.85731 -36.6243,106.28171 -1.1552,3.3391 -1.6512,5.5513 2.9483,6.7095 34.0621,8.6365 67.76551,7.8278 101.29822,-2.7061 3.3725,-1.0852 3.9309,-2.4521 2.7391,-5.753 -16.3587,-44.5234 -32.58481,-89.11121 -48.84311,-133.63991 -1.7121,-4.7356 -3.5052,-9.4104 -5.434,-14.6069 z m 87.92111,136.58591 c 24.1172,-5.8278 66.3937,-57.5095 79.139,-97.29201 15.48441,-48.2417 11.34441,-94.9739 -11.4832,-140.4434 -1.1919,0.9843 -1.0193,1.713 -0.9477,2.3826 2.46,22.9304 -1.2635,45.0521 -8.741,66.6452 -18.7852,54.2451 -37.6772,108.45731 -56.4991,162.67111 -0.6638,1.9357 -1.7471,3.7948 -1.468,6.0365 z" id="path6-8" style="fill:#ffffff;fill-opacity:1"/></g></svg>