<?xml version="1.0" ?><svg enable-background="new 0 0 515.91 728.5" height="512" id="Layer_1" version="1.1" viewBox="0 0 512.00003 512" width="512" xml:space="preserve" xmlns="http://www.w3.org/2000/svg" xmlns:cc="http://creativecommons.org/ns#" xmlns:dc="http://purl.org/dc/elements/1.1/" xmlns:inkscape="http://www.inkscape.org/namespaces/inkscape" xmlns:rdf="http://www.w3.org/1999/02/22-rdf-syntax-ns#" xmlns:sodipodi="http://sodipodi.sourceforge.net/DTD/sodipodi-0.dtd" xmlns:svg="http://www.w3.org/2000/svg"><defs id="defs7"/><rect height="512" id="rect2984" rx="64" ry="64" style="fill:#cf2200;fill-opacity:1;fill-rule:nonzero;stroke:none" width="512" x="1.5e-005" y="0"/><path d="m 371.28893,348.58667 h -21.95556 l 0.10223,-12.75111 c 0,-5.66667 4.65333,-10.30223 10.34222,-10.30223 h 1.39999 c 5.69778,0 10.36444,4.63556 10.36444,10.30223 l -0.25333,12.75111 z M 288.9467,321.26222 c -5.56889,0 -10.12445,3.74222 -10.12445,8.32445 V 391.6 c 0,4.57333 4.55556,8.30667 10.12445,8.30667 5.59111,0 10.15111,-3.73334 10.15111,-8.30667 v -62.01333 c 0,-4.58667 -4.55999,-8.32445 -10.15111,-8.32445 z M 422.66666,286.57333 V 404.54667 C 422.66666,432.84444 398.12446,456 368.13337,456 H 143.87114 C 113.8667,456 89.333365,432.84444 89.333365,404.54667 V 286.57333 c 0,-28.29777 24.533335,-51.45777 54.537775,-51.45777 h 224.26223 c 29.9911,0 54.5333,23.16 54.5333,51.45777 z m -263.83552,130.78223 0,-124.27112 27.8,0.009 V 274.68011 L 112.52447,274.569 v 18.10222 l 23.13334,0.0667 V 417.3557 h 23.19111 z m 83.33334,-105.76 h -23.17777 v 66.36 c 0,9.6 0.58222,14.4 -0.0444,16.09333 -1.88445,5.14667 -10.35555,10.60889 -13.65778,0.55555 -0.56,-1.76 -0.0667,-7.07111 -0.0756,-16.19111 l -0.0933,-66.81777 h -23.0489 l 0.0711,65.76444 c 0,10.08 -0.22667,17.6 0.08,21.01778 0.56444,6.03111 0.36443,13.06666 5.96,17.08 10.42666,7.51555 30.41333,-1.12 35.41333,-11.85778 l -0.0444,13.70222 18.61333,0.0222 V 311.59554 z m 74.14666,75.99111 -0.0489,-55.23111 c 0,-21.04889 -15.76444,-33.65778 -37.14221,-16.62667 l 0.0933,-41.06222 -23.15555,0.0356 -0.11111,141.73334 19.03555,-0.28 1.73334,-8.82667 c 24.33777,22.32444 39.63111,7.03111 39.59555,-19.74222 z m 72.53778,-7.32 -17.38221,0.0933 c 0,0.68889 -0.0444,1.48444 -0.0444,2.35111 v 9.69778 c 0,5.18667 -4.28889,9.41333 -9.49778,9.41333 h -3.40445 c -5.21777,0 -9.50221,-4.22666 -9.50221,-9.41333 v -1.07556 -10.66666 -13.76445 h 39.7955 v -14.97778 c 0,-10.94666 -0.28,-21.88888 -1.18666,-28.14666 -2.84445,-19.79556 -30.63112,-22.93778 -44.66667,-12.80445 -4.40889,3.16445 -7.77333,7.4 -9.72889,13.09334 -1.97778,5.69333 -2.95555,13.47111 -2.95555,23.35111 v 32.92889 c 0.004,54.74666 66.50222,47.00889 58.56888,-0.08 z M 299.70226,201.47556 c 1.19556,2.90666 3.05334,5.26222 5.57334,7.04 2.48888,1.75111 5.67555,2.63111 9.48444,2.63111 3.34222,0 6.30222,-0.90223 8.87999,-2.76445 2.5689,-1.85333 4.73334,-4.62222 6.49779,-8.31555 l -0.43556,9.09333 h 25.83556 V 99.28889 H 335.20004 V 184.8 c 0,4.63111 -3.81333,8.42222 -8.47556,8.42222 -4.63555,0 -8.46222,-3.79111 -8.46222,-8.42222 V 99.28889 H 297.0356 v 74.10667 c 0,9.44 0.16887,15.73333 0.44888,18.92444 0.29778,3.16889 1.02223,6.20889 2.21778,9.15556 z m -78.29333,-62.05334 c 0,-10.54666 0.88,-18.78222 2.62667,-24.72 1.76,-5.91555 4.92,-10.67111 9.49776,-14.25778 4.56445,-3.60444 10.4089,-5.40888 17.51557,-5.40888 5.97778,0 11.09777,1.17333 15.37778,3.47111 4.29777,2.31111 7.60889,5.31111 9.91111,9.01333 2.34222,3.71556 3.93333,7.53333 4.78222,11.44 0.86667,3.96 1.29333,9.93333 1.29333,17.99111 v 27.78667 c 0,10.19111 -0.40889,17.68889 -1.2,22.44889 -0.78666,4.77333 -2.47555,9.2 -5.08889,13.35111 -2.58222,4.10666 -5.91111,7.17778 -9.94666,9.13778 -4.08,1.97777 -8.74667,2.94666 -14.01778,2.94666 -5.88889,0 -10.84889,-0.81333 -14.93778,-2.51111 -4.10222,-1.68889 -7.27111,-4.23555 -9.52889,-7.61778 -2.28,-3.38666 -3.88444,-7.51111 -4.85333,-12.32 -0.97333,-4.80444 -1.43556,-12.03111 -1.43556,-21.66222 v -29.08889 z m 20.23555,43.64445 c 0,6.22222 4.63112,11.30222 10.27112,11.30222 5.64444,0 10.25333,-5.08 10.25333,-11.30222 v -58.48889 c 0,-6.21334 -4.60889,-11.29334 -10.25333,-11.29334 -5.64,0 -10.27112,5.08 -10.27112,11.29334 v 58.48889 z M 170.14226,212.6 h 24.37334 l 0.0444,-84.26667 28.8,-72.18666 H 196.70222 L 181.39111,109.76444 165.86221,56 H 139.48 l 30.64,72.37333 0.0444,84.22667 z" id="YouTube" style="fill:#ffffff;fill-opacity:1"/></svg>